<mxfile host="app.diagrams.net" modified="2024-07-01T22:54:29.710Z" agent="Mozilla/5.0 (Windows NT 10.0; Win64; x64) AppleWebKit/537.36 (KHTML, like Gecko) Chrome/126.0.0.0 Safari/537.36" etag="0eB3Q2YIixRBAi5Pc0n9" version="24.6.4" type="github">
  <diagram name="Page-1" id="929967ad-93f9-6ef4-fab6-5d389245f69c">
    <mxGraphModel dx="622" dy="514" grid="1" gridSize="10" guides="1" tooltips="1" connect="1" arrows="1" fold="1" page="1" pageScale="1.5" pageWidth="1169" pageHeight="826" background="none" math="0" shadow="0">
      <root>
        <mxCell id="0" style=";html=1;" />
        <mxCell id="1" style=";html=1;" parent="0" />
        <mxCell id="1672d66443f91eb5-23" value="Tekst" style="text;strokeColor=none;fillColor=none;html=1;fontSize=24;fontStyle=1;verticalAlign=middle;align=center;fontFamily=Comic Sans MS;" parent="1" vertex="1">
          <mxGeometry x="120" y="40" width="1510" height="40" as="geometry" />
        </mxCell>
        <mxCell id="WX73TH_L4BEvPt0-ElL3-33" value="" style="group" vertex="1" connectable="0" parent="1">
          <mxGeometry x="590" y="250" width="600" height="350" as="geometry" />
        </mxCell>
        <mxCell id="WX73TH_L4BEvPt0-ElL3-11" value="com.tekst.model" style="shape=folder;fontStyle=1;spacingTop=10;tabWidth=40;tabHeight=14;tabPosition=left;html=1;whiteSpace=wrap;" vertex="1" parent="WX73TH_L4BEvPt0-ElL3-33">
          <mxGeometry width="600" height="350" as="geometry" />
        </mxCell>
        <mxCell id="WX73TH_L4BEvPt0-ElL3-1" value="Artist" style="swimlane;fontStyle=1;align=center;verticalAlign=top;childLayout=stackLayout;horizontal=1;startSize=26;horizontalStack=0;resizeParent=1;resizeParentMax=0;resizeLast=0;collapsible=1;marginBottom=0;whiteSpace=wrap;html=1;" vertex="1" parent="WX73TH_L4BEvPt0-ElL3-33">
          <mxGeometry x="53" y="55" width="160" height="88" as="geometry" />
        </mxCell>
        <mxCell id="WX73TH_L4BEvPt0-ElL3-2" value="- id: Long&lt;div&gt;- name: String&lt;/div&gt;&lt;div&gt;- musics: List&amp;lt;Music&amp;gt;&lt;/div&gt;" style="text;strokeColor=none;fillColor=none;align=left;verticalAlign=top;spacingLeft=4;spacingRight=4;overflow=hidden;rotatable=0;points=[[0,0.5],[1,0.5]];portConstraint=eastwest;whiteSpace=wrap;html=1;" vertex="1" parent="WX73TH_L4BEvPt0-ElL3-1">
          <mxGeometry y="26" width="160" height="54" as="geometry" />
        </mxCell>
        <mxCell id="WX73TH_L4BEvPt0-ElL3-3" value="" style="line;strokeWidth=1;fillColor=none;align=left;verticalAlign=middle;spacingTop=-1;spacingLeft=3;spacingRight=3;rotatable=0;labelPosition=right;points=[];portConstraint=eastwest;strokeColor=inherit;" vertex="1" parent="WX73TH_L4BEvPt0-ElL3-1">
          <mxGeometry y="80" width="160" height="8" as="geometry" />
        </mxCell>
        <mxCell id="WX73TH_L4BEvPt0-ElL3-14" value="Music" style="swimlane;fontStyle=1;align=center;verticalAlign=top;childLayout=stackLayout;horizontal=1;startSize=26;horizontalStack=0;resizeParent=1;resizeParentMax=0;resizeLast=0;collapsible=1;marginBottom=0;whiteSpace=wrap;html=1;" vertex="1" parent="WX73TH_L4BEvPt0-ElL3-33">
          <mxGeometry x="53" y="185" width="160" height="108" as="geometry" />
        </mxCell>
        <mxCell id="WX73TH_L4BEvPt0-ElL3-15" value="- id: Long&lt;div&gt;- title: String&lt;/div&gt;&lt;div&gt;- artist: Artist&lt;/div&gt;&lt;div&gt;- lyrics: List&amp;lt;Lyrics&amp;gt;&lt;/div&gt;" style="text;strokeColor=none;fillColor=none;align=left;verticalAlign=top;spacingLeft=4;spacingRight=4;overflow=hidden;rotatable=0;points=[[0,0.5],[1,0.5]];portConstraint=eastwest;whiteSpace=wrap;html=1;" vertex="1" parent="WX73TH_L4BEvPt0-ElL3-14">
          <mxGeometry y="26" width="160" height="74" as="geometry" />
        </mxCell>
        <mxCell id="WX73TH_L4BEvPt0-ElL3-16" value="" style="line;strokeWidth=1;fillColor=none;align=left;verticalAlign=middle;spacingTop=-1;spacingLeft=3;spacingRight=3;rotatable=0;labelPosition=right;points=[];portConstraint=eastwest;strokeColor=inherit;" vertex="1" parent="WX73TH_L4BEvPt0-ElL3-14">
          <mxGeometry y="100" width="160" height="8" as="geometry" />
        </mxCell>
        <mxCell id="WX73TH_L4BEvPt0-ElL3-17" value="Translation" style="swimlane;fontStyle=1;align=center;verticalAlign=top;childLayout=stackLayout;horizontal=1;startSize=26;horizontalStack=0;resizeParent=1;resizeParentMax=0;resizeLast=0;collapsible=1;marginBottom=0;whiteSpace=wrap;html=1;" vertex="1" parent="WX73TH_L4BEvPt0-ElL3-33">
          <mxGeometry x="383" y="45" width="160" height="108" as="geometry" />
        </mxCell>
        <mxCell id="WX73TH_L4BEvPt0-ElL3-18" value="- id: Long&lt;div&gt;- language: String&lt;/div&gt;&lt;div&gt;- content: String&lt;/div&gt;&lt;div&gt;- lyrics: Lyrics&lt;/div&gt;" style="text;strokeColor=none;fillColor=none;align=left;verticalAlign=top;spacingLeft=4;spacingRight=4;overflow=hidden;rotatable=0;points=[[0,0.5],[1,0.5]];portConstraint=eastwest;whiteSpace=wrap;html=1;" vertex="1" parent="WX73TH_L4BEvPt0-ElL3-17">
          <mxGeometry y="26" width="160" height="74" as="geometry" />
        </mxCell>
        <mxCell id="WX73TH_L4BEvPt0-ElL3-19" value="" style="line;strokeWidth=1;fillColor=none;align=left;verticalAlign=middle;spacingTop=-1;spacingLeft=3;spacingRight=3;rotatable=0;labelPosition=right;points=[];portConstraint=eastwest;strokeColor=inherit;" vertex="1" parent="WX73TH_L4BEvPt0-ElL3-17">
          <mxGeometry y="100" width="160" height="8" as="geometry" />
        </mxCell>
        <mxCell id="WX73TH_L4BEvPt0-ElL3-21" value="Lyrics" style="swimlane;fontStyle=1;align=center;verticalAlign=top;childLayout=stackLayout;horizontal=1;startSize=26;horizontalStack=0;resizeParent=1;resizeParentMax=0;resizeLast=0;collapsible=1;marginBottom=0;whiteSpace=wrap;html=1;" vertex="1" parent="WX73TH_L4BEvPt0-ElL3-33">
          <mxGeometry x="383" y="170" width="160" height="138" as="geometry" />
        </mxCell>
        <mxCell id="WX73TH_L4BEvPt0-ElL3-22" value="- id: Long&lt;div&gt;- language: String&lt;/div&gt;&lt;div&gt;- content: String&lt;/div&gt;&lt;div&gt;- music: Music&lt;/div&gt;&lt;div&gt;- translations: List&amp;lt;Translation&amp;gt;&lt;/div&gt;" style="text;strokeColor=none;fillColor=none;align=left;verticalAlign=top;spacingLeft=4;spacingRight=4;overflow=hidden;rotatable=0;points=[[0,0.5],[1,0.5]];portConstraint=eastwest;whiteSpace=wrap;html=1;" vertex="1" parent="WX73TH_L4BEvPt0-ElL3-21">
          <mxGeometry y="26" width="160" height="104" as="geometry" />
        </mxCell>
        <mxCell id="WX73TH_L4BEvPt0-ElL3-23" value="" style="line;strokeWidth=1;fillColor=none;align=left;verticalAlign=middle;spacingTop=-1;spacingLeft=3;spacingRight=3;rotatable=0;labelPosition=right;points=[];portConstraint=eastwest;strokeColor=inherit;" vertex="1" parent="WX73TH_L4BEvPt0-ElL3-21">
          <mxGeometry y="130" width="160" height="8" as="geometry" />
        </mxCell>
        <mxCell id="WX73TH_L4BEvPt0-ElL3-25" value="" style="endArrow=block;endFill=1;html=1;edgeStyle=orthogonalEdgeStyle;align=left;verticalAlign=top;rounded=0;" edge="1" parent="WX73TH_L4BEvPt0-ElL3-33">
          <mxGeometry x="-1" relative="1" as="geometry">
            <mxPoint x="213" y="242" as="sourcePoint" />
            <mxPoint x="385" y="242.33000000000004" as="targetPoint" />
          </mxGeometry>
        </mxCell>
        <mxCell id="WX73TH_L4BEvPt0-ElL3-26" value="1" style="edgeLabel;resizable=0;html=1;align=left;verticalAlign=bottom;" connectable="0" vertex="1" parent="WX73TH_L4BEvPt0-ElL3-25">
          <mxGeometry x="-1" relative="1" as="geometry" />
        </mxCell>
        <mxCell id="WX73TH_L4BEvPt0-ElL3-29" value="" style="endArrow=block;endFill=1;html=1;edgeStyle=orthogonalEdgeStyle;align=left;verticalAlign=top;rounded=0;exitX=0;exitY=0.5;exitDx=0;exitDy=0;entryX=0;entryY=0.5;entryDx=0;entryDy=0;" edge="1" parent="WX73TH_L4BEvPt0-ElL3-33" source="WX73TH_L4BEvPt0-ElL3-2" target="WX73TH_L4BEvPt0-ElL3-15">
          <mxGeometry x="-1" relative="1" as="geometry">
            <mxPoint x="225" y="113.33000000000001" as="sourcePoint" />
            <mxPoint x="395" y="113.33000000000001" as="targetPoint" />
          </mxGeometry>
        </mxCell>
        <mxCell id="WX73TH_L4BEvPt0-ElL3-30" value="1" style="edgeLabel;resizable=0;html=1;align=left;verticalAlign=bottom;" connectable="0" vertex="1" parent="WX73TH_L4BEvPt0-ElL3-29">
          <mxGeometry x="-1" relative="1" as="geometry">
            <mxPoint x="-10" y="22" as="offset" />
          </mxGeometry>
        </mxCell>
        <mxCell id="WX73TH_L4BEvPt0-ElL3-12" value="" style="endArrow=block;endFill=1;html=1;edgeStyle=orthogonalEdgeStyle;align=left;verticalAlign=top;rounded=0;exitX=1;exitY=0.5;exitDx=0;exitDy=0;entryX=1;entryY=0.5;entryDx=0;entryDy=0;" edge="1" parent="WX73TH_L4BEvPt0-ElL3-33" source="WX73TH_L4BEvPt0-ElL3-22" target="WX73TH_L4BEvPt0-ElL3-18">
          <mxGeometry x="-1" relative="1" as="geometry">
            <mxPoint x="543" y="233.93" as="sourcePoint" />
            <mxPoint x="630.0666666666666" y="125.93" as="targetPoint" />
          </mxGeometry>
        </mxCell>
        <mxCell id="WX73TH_L4BEvPt0-ElL3-13" value="1" style="edgeLabel;resizable=0;html=1;align=left;verticalAlign=bottom;" connectable="0" vertex="1" parent="WX73TH_L4BEvPt0-ElL3-12">
          <mxGeometry x="-1" relative="1" as="geometry" />
        </mxCell>
      </root>
    </mxGraphModel>
  </diagram>
</mxfile>
